<?xml version="1.0" encoding="utf-8"?>
<!-- Generator: Adobe Illustrator 16.0.0, SVG Export Plug-In . SVG Version: 6.00 Build 0)  -->
<!DOCTYPE svg PUBLIC "-//W3C//DTD SVG 1.1//EN" "http://www.w3.org/Graphics/SVG/1.1/DTD/svg11.dtd">
<svg version="1.1" id="图层_1" xmlns="http://www.w3.org/2000/svg" xmlns:xlink="http://www.w3.org/1999/xlink" x="0px" y="0px"
	 width="25.26px" height="18px" viewBox="0 0 25.26 18" enable-background="new 0 0 25.26 18" xml:space="preserve">
<path fill="#FFFFFF" d="M0,18h25.26V0H0V18z"/>
<path fill="#015DA4" d="M0,12h25.26V6H0V12z"/>
<rect y="12" fill="#ED1D26" width="25.26" height="6"/>
<path fill="#ED1D26" d="M7.043,2.73c-1.005,0-1.931,0.295-2.676,0.793l0.194,2.528c0.04,0.493,0.104,1.158,0.747,1.796
	C5.701,8.24,6.075,8.626,6.97,8.973l0.073,0.028l0.073-0.028C8.011,8.626,8.384,8.24,8.778,7.849C9.42,7.21,9.481,6.568,9.525,6.052
	l0.194-2.528C8.974,3.026,8.047,2.73,7.043,2.73"/>
<path fill="#015DA4" d="M6.793,2.737C5.97,2.777,5.207,3.016,4.563,3.399l0.202,2.626c0.037,0.453,0.096,1.063,0.686,1.648
	c0.36,0.359,0.704,0.714,1.525,1.031l0.067,0.026L7.11,8.706c0.821-0.317,1.164-0.672,1.525-1.031
	C9.224,7.088,9.28,6.499,9.321,6.026l0.202-2.626C8.878,3.015,8.115,2.777,7.292,2.737L7.268,2.735
	C7.193,2.732,7.118,2.73,7.043,2.73s-0.15,0.002-0.224,0.005L6.793,2.737"/>
<path fill="#FFFFFF" d="M8.514,7.485C8.461,7.492,8.407,7.496,8.352,7.496c-0.08,0-0.132-0.028-0.199-0.063
	c-0.096-0.049-0.214-0.11-0.445-0.11c-0.23,0-0.345,0.065-0.438,0.118C7.203,7.48,7.149,7.511,7.062,7.511
	c-0.103,0-0.201-0.042-0.304-0.086c-0.116-0.05-0.237-0.102-0.379-0.102c-0.143,0-0.245,0.064-0.344,0.127
	C5.943,7.509,5.857,7.563,5.741,7.563c-0.031,0-0.065-0.004-0.102-0.01c0.04,0.04,0.08,0.079,0.121,0.118
	c0.138-0.005,0.238-0.067,0.334-0.127c0.089-0.057,0.174-0.11,0.284-0.11c0.12,0,0.225,0.045,0.336,0.093
	c0.109,0.046,0.223,0.095,0.348,0.095c0.116,0,0.191-0.042,0.263-0.084c0.09-0.051,0.182-0.104,0.383-0.104
	c0.205,0,0.305,0.052,0.395,0.098c0.074,0.038,0.144,0.074,0.25,0.074c0.015,0,0.028,0,0.043-0.001l0.101-0.101
	C8.502,7.498,8.508,7.491,8.514,7.485"/>
<path fill="#FFFFFF" d="M5.395,7.282C5.526,7.334,5.66,7.376,5.741,7.376c0.059,0,0.107-0.029,0.194-0.083
	c0.104-0.066,0.247-0.157,0.444-0.157c0.18,0,0.331,0.064,0.453,0.117c0.089,0.038,0.167,0.071,0.23,0.071
	c0.034,0,0.05-0.007,0.115-0.044c0.1-0.057,0.25-0.143,0.53-0.143c0.277,0,0.424,0.076,0.531,0.131
	c0.064,0.034,0.082,0.042,0.114,0.042c0.129,0,0.257-0.026,0.361-0.057c0.11-0.147,0.198-0.309,0.261-0.481
	C9.018,6.654,9.047,6.54,9.069,6.43L8.083,5.262L7.581,5.736L7.043,4.561L6.509,5.728L6.013,5.262L5.02,6.438
	c0.021,0.107,0.05,0.219,0.092,0.333C5.18,6.955,5.275,7.127,5.395,7.282 M8.016,7.698C7.932,7.655,7.867,7.621,7.708,7.621
	c-0.151,0-0.212,0.035-0.29,0.08c-0.08,0.046-0.19,0.108-0.356,0.108c-0.164,0-0.3-0.059-0.421-0.11
	C6.543,7.657,6.459,7.621,6.378,7.621c-0.054,0-0.102,0.029-0.184,0.081C6.125,7.746,6.04,7.799,5.934,7.832
	c0.245,0.214,0.55,0.421,1.048,0.614l0.061,0.024l0.061-0.024c0.541-0.209,0.854-0.436,1.11-0.669
	C8.145,7.759,8.079,7.732,8.016,7.698"/>
<path fill="#FFDD00" d="M6.299,3.256l0.08-0.169l0.085,0.166l0.186,0.024L6.518,3.41l0.035,0.184L6.385,3.509L6.222,3.599
	L6.25,3.415L6.114,3.286L6.299,3.256z M7.621,3.256l0.08-0.169l0.086,0.166l0.185,0.024L7.84,3.41l0.035,0.184L7.708,3.509
	L7.544,3.599l0.029-0.184L7.437,3.286L7.621,3.256z M6.96,4.097l0.08-0.169l0.086,0.166l0.185,0.024L7.179,4.25l0.035,0.184
	L7.047,4.35l-0.164,0.09l0.029-0.185L6.775,4.126L6.96,4.097z"/>
</svg>
