<?xml version="1.0" encoding="utf-8"?>
<!-- Generator: Adobe Illustrator 16.0.0, SVG Export Plug-In . SVG Version: 6.00 Build 0)  -->
<!DOCTYPE svg PUBLIC "-//W3C//DTD SVG 1.1//EN" "http://www.w3.org/Graphics/SVG/1.1/DTD/svg11.dtd">
<svg version="1.1" id="图层_1" xmlns="http://www.w3.org/2000/svg" xmlns:xlink="http://www.w3.org/1999/xlink" x="0px" y="0px"
	 width="25.26px" height="18px" viewBox="0 0 25.26 18" enable-background="new 0 0 25.26 18" xml:space="preserve">
<path fill="#070203" d="M0,0h25.26v5.4H0V0z"/>
<path fill="#225821" d="M0,12.6h25.26V18H0V12.6z"/>
<path fill="#9F0012" d="M0,6.42v5.4c-0.057-0.12,25.26-0.12,25.26,0v-5.4H0z"/>
<path fill="#FFFFFF" d="M15.828,14.383l-0.181,0.121l-5.22-9.121c-0.36-0.06-0.479-0.359-0.66-0.66c-0.36-0.6-0.601-1.26-0.78-1.979
	c0.541,0.479,0.961,1.021,1.32,1.62c0.18,0.24,0.3,0.6,0.24,0.9L15.828,14.383z"/>
<path fill="#070203" d="M15.647,14.504l-5.279-9.061c-0.301-0.12-0.48-0.42-0.601-0.721c-0.36-0.6-0.601-1.319-0.78-1.979
	c0.541,0.479,1.021,1.021,1.381,1.62c0.18,0.24,0.299,0.6,0.239,0.9l5.28,9.119L15.647,14.504z M8.987,2.743
	c0.18,0.66,0.42,1.319,0.78,1.979c0.181,0.301,0.36,0.601,0.66,0.66l5.22,9.121l0.181-0.121l-5.221-9.06
	c0.06-0.3-0.06-0.66-0.239-0.899C9.948,3.823,9.528,3.223,8.987,2.743L8.987,2.743z"/>
<path fill="#070203" d="M9.647,14.504l-0.18-0.121l5.159-9.119c0-0.301,0.061-0.601,0.301-0.84c0.359-0.601,0.779-1.201,1.32-1.681
	c-0.121,0.72-0.36,1.38-0.721,1.979c-0.18,0.301-0.359,0.601-0.66,0.66L9.647,14.504z M16.248,2.743
	c-0.541,0.479-0.961,1.08-1.32,1.681c-0.18,0.239-0.301,0.539-0.24,0.84l-5.28,9.119l0.181,0.061l5.279-9.061
	c0.301-0.06,0.48-0.359,0.66-0.66C15.828,4.123,16.127,3.463,16.248,2.743z"/>
<path fill="#FFFFFF" d="M9.407,14.383l0.181,0.121l5.279-9.121c0.301-0.06,0.48-0.359,0.66-0.66c0.36-0.6,0.6-1.26,0.78-1.979
	c-0.601,0.479-1.021,1.021-1.38,1.681c-0.18,0.239-0.301,0.539-0.24,0.84L9.407,14.383z"/>
<path fill="#9F0012" d="M12.588,3.703c-0.72,0-2.64,2.4-2.64,5.4s1.92,5.4,2.64,5.4s2.64-2.4,2.64-5.4S13.308,3.703,12.588,3.703z"
	/>
<path fill="#070203" d="M14.627,11.743c0.781-1.739,0.781-3.66,0-5.399C13.908,8.071,13.908,10.016,14.627,11.743z M10.487,11.743
	c-0.72-1.728-0.72-3.672,0-5.399C11.268,8.083,11.268,10.004,10.487,11.743z"/>
<path fill="#FFFFFF" d="M12.647,8.383c0.24,0,0.479,0.301,0.479,0.66c0,0.36-0.239,0.66-0.479,0.66s-0.42-0.3-0.42-0.66
	C12.228,8.684,12.407,8.383,12.647,8.383z M12.768,9.703c0.6,1.5,0.6,3.18,0,4.74V9.703z M12.528,8.383
	c-0.601-1.5-0.601-3.18,0-4.74V8.383z M12.528,9.703c-0.601,1.5-0.601,3.18,0,4.74V9.703z M12.768,8.383c0.6-1.5,0.6-3.18,0-4.74
	V8.383z"/>
</svg>
