<?xml version="1.0" standalone="no"?><!DOCTYPE svg PUBLIC "-//W3C//DTD SVG 1.1//EN" "http://www.w3.org/Graphics/SVG/1.1/DTD/svg11.dtd"><svg t="1704365815155" class="icon" viewBox="0 0 1437 1024" version="1.1" xmlns="http://www.w3.org/2000/svg" p-id="5679" xmlns:xlink="http://www.w3.org/1999/xlink" width="25.259765625" height="18"><path d="M359.297401 0h718.562725v1024h-718.562725z" fill="#FFFFFF" p-id="5680"></path><path d="M0 0h359.281362v1024H0z m1077.844086 0h359.281362v1024H1077.844086zM466.744984 494.81384l-27.908463 9.623608 129.83851 114.889839c9.81608 29.528437-3.416381 38.237802-11.837038 53.715772l140.953777-18.028226-3.67301 143.022853 29.191611-0.850085-6.415739-141.835941 141.14625 16.857353c-8.709365-18.589603-16.45637-28.453801-8.436697-58.190749l129.742274-108.859045-22.695675-8.276303c-18.573563-14.435412 8.019673-69.578685 12.02951-104.368028 0 0-75.769873 26.27245-80.726031 12.52673l-19.247216-37.371678-68.96919 76.34729c-7.538493 1.812446-10.746362-1.202951-12.51069-7.61869l31.90226-159.52734-50.411666 28.582115c-4.234387 1.828486-8.452736 0.25663-11.227543-4.699528l-48.502984-98.128722-50.010682 101.897968c-3.769246 3.656971-7.538493 4.073994-10.666166 1.603935l-48.005764-27.154614 28.870824 158.276272c-2.293627 6.287424-7.779083 8.019673-14.24294 4.65141l-65.873596-75.481165c-8.629168 13.938192-14.435412 36.681985-25.855426 41.782498-11.403975 4.811804-49.545541-9.623608-75.1283-15.285497 8.741444 31.789985 36.056451 84.607553 18.766036 101.914008z" fill="#BF0A30" p-id="5681"></path></svg>