<?xml version="1.0" encoding="utf-8"?>
<!-- Generator: Adobe Illustrator 16.0.0, SVG Export Plug-In . SVG Version: 6.00 Build 0)  -->
<!DOCTYPE svg PUBLIC "-//W3C//DTD SVG 1.1//EN" "http://www.w3.org/Graphics/SVG/1.1/DTD/svg11.dtd">
<svg version="1.1" id="图层_1" xmlns="http://www.w3.org/2000/svg" xmlns:xlink="http://www.w3.org/1999/xlink" x="0px" y="0px"
	 width="25.26px" height="18px" viewBox="0 0 25.26 18" enable-background="new 0 0 25.26 18" xml:space="preserve">
<path fill="#01226A" d="M0,0h25.28v18.011H0V0z"/>
<path fill="#FFFFFF" d="M12.641,11.547V9.536h-2.514L23.603,0h1.678v2.602L12.641,11.547z"/>
<path fill="#FFFFFF" d="M16.382,9.535h-3.741v1.259L0,2.52V0h1.817L16.382,9.535z"/>
<path fill="#DF222E" d="M12.641,8.806v1.237L0,1.767V0.53L12.641,8.806L12.641,8.806z"/>
<path fill="#FFFFFF" d="M10.403,9.535h1.264V6.656l13.613,8.913v2.442H23.35L10.403,9.535L10.403,9.535z"/>
<path fill="#DF222E" d="M11.667,8.75V7.513l13.613,8.912v1.236L11.667,8.75L11.667,8.75z M30.144,19.609l0.028,0.019l-0.028,0.056
	V19.609L30.144,19.609z"/>
<path fill="#DF222E" d="M11.667,10.614v-0.019c0-0.374-0.179-0.721-0.474-0.912L24.881,0h0.399v0.98L11.667,10.614z"/>
<path fill="#FFFFFF" d="M0,18.011v-1.266l11.667-8.256v1.047h3.877L3.565,18.011H0z"/>
<path fill="#DF222E" d="M2.226,18.011H0.44l12.459-8.815c0.184,0.217,0.442,0.34,0.714,0.34h0.591L2.226,18.011L2.226,18.011z"/>
<path fill="#FFFFFF" d="M15.071,0v18.011h-4.862V0H15.071z"/>
<path fill="#FFFFFF" d="M0,5.828h25.28v6.358H0V5.828z"/>
<path fill="#DF222E" d="M0,6.887h25.28v4.238H0V6.887z"/>
<path fill="#DF222E" d="M14.1,0v18.011h-2.918V0H14.1z"/>
</svg>
