<?xml version="1.0" standalone="no"?><!DOCTYPE svg PUBLIC "-//W3C//DTD SVG 1.1//EN" "http://www.w3.org/Graphics/SVG/1.1/DTD/svg11.dtd"><svg t="1704366354499" class="icon" viewBox="0 0 1532 1024" version="1.1" xmlns="http://www.w3.org/2000/svg" p-id="14792" xmlns:xlink="http://www.w3.org/1999/xlink" width="26.9296875" height="18"><path d="M0 1024V0h1532.184799v1024z m1526.080477 0z m-1526.080477 0h1526.080477V6.104322H6.104322z" fill="#231F20" p-id="14793"></path><path d="M3.052161 681.394933h1526.080477v112.929955h-1526.080477zM3.052161 907.254844h1526.080477v112.929955h-1526.080477z" fill="#0061AA" p-id="14794"></path><path d="M3.052161 794.324888h1526.080477v112.929956h-1526.080477zM3.052161 568.464978h1526.080477v112.929955h-1526.080477zM3.052161 342.605067h1526.080477v112.929955h-1526.080477z" fill="#FFFFFF" p-id="14795"></path><path d="M3.052161 228.912072h1526.080477v112.929955h-1526.080477z" fill="#0061AA" p-id="14796"></path><path d="M3.052161 115.982116h1526.080477V228.912072h-1526.080477z" fill="#FFFFFF" p-id="14797"></path><path d="M3.052161 455.535022h1526.080477v112.929956h-1526.080477zM3.052161 3.052161h1526.080477v112.929955h-1526.080477z" fill="#0061AA" p-id="14798"></path><path d="M3.052161 3.052161h565.412817v565.412817H3.052161z" fill="#0061AA" p-id="14799"></path><path d="M568.464978 228.912072H342.605067V3.052161H228.912072V228.912072H3.052161v113.692995H228.912072v225.859911h113.692995V342.605067h225.859911V228.912072z" fill="#FFFFFF" p-id="14800"></path></svg>