<?xml version="1.0" standalone="no"?><!DOCTYPE svg PUBLIC "-//W3C//DTD SVG 1.1//EN" "http://www.w3.org/Graphics/SVG/1.1/DTD/svg11.dtd"><svg t="1704366385244" class="icon" viewBox="0 0 1532 1024" version="1.1" xmlns="http://www.w3.org/2000/svg" p-id="16142" xmlns:xlink="http://www.w3.org/1999/xlink" width="26.9296875" height="18"><path d="M0 1024V0h1532.913v1024z m1529.724-3.138zM6.378 1017.59h1520.191V6.259H6.378z" fill="#231F20" p-id="16143"></path><path d="M186.78 3.12v1017.674h122.021l508.845-339.213h712.078V342.283H817.646L308.801 3.121h-122.02z" fill="#FFFFFF" p-id="16144"></path><path d="M308.801 3.12l508.845 339.163h712.078V3.121H308.801z" fill="#EE3424" p-id="16145"></path><path d="M817.646 681.581l-508.845 339.213h1220.923V681.581H817.646z" fill="#0055A4" p-id="16146"></path><path d="M3.206 3.12v122.395l579.642 386.4L3.206 898.485v122.31H186.78L797.26 613.751h732.465V410.095H797.26L186.78 3.121H3.206z" fill="#008A5F" p-id="16147"></path><path d="M3.206 898.485l579.642-386.57-579.642-386.4v772.97z" fill="#FDBB30" p-id="16148"></path><path d="M3.206 816.934l457.4-305.019-457.4-304.849v609.868z" p-id="16149"></path></svg>